<svg width="17" height="15" viewBox="0 0 17 15" fill="none" xmlns="http://www.w3.org/2000/svg">
<path d="M2.5 13.75H14.5C14.8978 13.75 15.2794 13.592 15.5607 13.3107C15.842 13.0294 16 12.6478 16 12.25V4.75C16 4.35218 15.842 3.97064 15.5607 3.68934C15.2794 3.40804 14.8978 3.25 14.5 3.25H8.5525C8.30544 3.24872 8.06252 3.18644 7.84532 3.06868C7.62813 2.95092 7.44338 2.78134 7.3075 2.575L6.6925 1.675C6.55662 1.46866 6.37187 1.29908 6.15468 1.18132C5.93748 1.06356 5.69456 1.00128 5.4475 1H2.5C2.10218 1 1.72064 1.15804 1.43934 1.43934C1.15804 1.72064 1 2.10218 1 2.5V12.25C1 13.075 1.675 13.75 2.5 13.75Z" stroke="white" stroke-width="2" stroke-linecap="round" stroke-linejoin="round"/>
</svg>
